<?xml version="1.0" encoding="UTF-8"?>
<svg version="1.1" xmlns="http://www.w3.org/2000/svg" width="1369" height="426">
<path d="M0 0 C451.77 0 903.54 0 1369 0 C1369 140.58 1369 281.16 1369 426 C917.23 426 465.46 426 0 426 C0 285.42 0 144.84 0 0 Z " fill="#FEFEFE" transform="translate(0,0)"/>
<path d="M0 0 C4.31321202 2.45321658 8.0594058 5.21503754 11.7265625 8.55078125 C12.35175781 9.09605469 12.97695313 9.64132813 13.62109375 10.203125 C24.29291249 20.08443865 29.67098131 34.33911765 30.32006836 48.69018555 C30.53768993 65.43355039 24.56921593 80.04446065 13.11328125 92.2578125 C1.98408761 102.94985287 -10.90163354 106.05877926 -25.83203125 105.8359375 C-31.00473763 105.62108286 -34.92693003 104.36724013 -39.2734375 101.55078125 C-40.3046875 100.95265625 -41.3359375 100.35453125 -42.3984375 99.73828125 C-44.81506086 97.89954609 -46.82938474 96.06528646 -48.953125 93.9140625 C-49.57687012 93.28411377 -50.20061523 92.65416504 -50.84326172 92.00512695 C-51.31521973 91.52519287 -51.78717773 91.04525879 -52.2734375 90.55078125 C-52.27708313 91.12849777 -52.28072876 91.70621429 -52.28448486 92.30143738 C-52.32633026 98.32026237 -52.39568993 104.33832625 -52.48095703 110.35668945 C-52.50916392 112.60205469 -52.53037982 114.84751916 -52.54443359 117.09301758 C-52.56586642 120.32294514 -52.61252021 123.55167981 -52.6640625 126.78125 C-52.66590546 128.2846418 -52.66590546 128.2846418 -52.66778564 129.81840515 C-52.76037448 134.23498226 -52.83427923 136.83672873 -55.18652344 140.66137695 C-58.64591268 143.79336261 -60.98010299 143.76417496 -65.5859375 143.86328125 C-66.71644531 143.90066406 -67.84695313 143.93804687 -69.01171875 143.9765625 C-72.91647807 143.46683943 -74.49491879 142.27868942 -77.2734375 139.55078125 C-78.55396179 136.98973267 -78.41090015 135.16331382 -78.42733765 132.29472351 C-78.43593811 131.18011749 -78.44453857 130.06551147 -78.45339966 128.91712952 C-78.45765961 127.68852707 -78.46191956 126.45992462 -78.46630859 125.1940918 C-78.47448608 123.90460632 -78.48266357 122.61512085 -78.49108887 121.28656006 C-78.51731259 117.00356132 -78.53261658 112.72055278 -78.546875 108.4375 C-78.55223449 106.96350409 -78.557612 105.48950825 -78.56300735 104.01551247 C-78.58463637 97.88449673 -78.60337342 91.75348363 -78.61462975 85.62243938 C-78.63087142 76.83359005 -78.6640536 68.04518266 -78.72103059 59.25649995 C-78.75972068 53.07808857 -78.77926128 46.89979544 -78.78455031 40.72126609 C-78.78820506 37.03042952 -78.80023824 33.34006426 -78.83265305 29.64935875 C-78.86830366 25.53118956 -78.8643653 21.41397105 -78.85693359 17.2956543 C-78.87333893 16.07312454 -78.88974426 14.85059479 -78.90664673 13.59101868 C-78.84565375 5.3564501 -78.84565375 5.3564501 -75.96157837 1.29573059 C-72.41041797 -1.00942948 -69.98631346 -1.11634751 -65.7734375 -1.07421875 C-63.83984375 -1.09355469 -63.83984375 -1.09355469 -61.8671875 -1.11328125 C-57.45365151 -0.29773656 -55.98534515 1.03496852 -53.2734375 4.55078125 C-52.4609375 8.36328125 -52.4609375 8.36328125 -52.2734375 11.55078125 C-51.6753125 10.70515625 -51.0771875 9.85953125 -50.4609375 8.98828125 C-38.3908924 -5.57185911 -16.49752045 -7.5666922 0 0 Z " fill="#2A2B3C" transform="translate(703.2734375,163.44921875)"/>
<path d="M0 0 C3.67960216 1.58539973 4.93793012 3.33630872 6.94921875 6.83984375 C7.72439407 13.12150198 5.94075019 16.31140934 2.47265625 21.23828125 C1.76267235 22.28843414 1.76267235 22.28843414 1.03834534 23.35980225 C-0.51831023 25.65524086 -2.09685058 27.93468395 -3.67578125 30.21484375 C-4.76394954 31.81120619 -5.85043621 33.40871611 -6.93530273 35.00732422 C-9.17825314 38.30960548 -11.42865079 41.60662277 -13.68408203 44.90039062 C-16.92479271 49.64266671 -20.1195682 54.41428821 -23.296875 59.19921875 C-23.79106934 59.94342072 -24.28526367 60.68762268 -24.79443359 61.45437622 C-25.76487582 62.91662436 -26.73507552 64.37903349 -27.70501709 65.84161377 C-29.93262004 69.20015509 -32.16323603 72.55666686 -34.3984375 75.91015625 C-34.80219101 76.51597534 -35.20594452 77.12179443 -35.62193298 77.74597168 C-38.5703211 82.15526255 -41.59459747 86.50623208 -44.6796875 90.82128906 C-47.75050379 95.34221305 -49.86456928 100.04611902 -49.66796875 105.66015625 C-47.37857204 113.74549401 -38.71092572 120.27093594 -32.859375 125.92578125 C-31.73558139 127.02203733 -30.6118848 128.11839287 -29.48828125 129.21484375 C-28.92431641 129.75367188 -28.36035156 130.2925 -27.77929688 130.84765625 C-23.35396753 135.19534824 -18.50831183 140.3899072 -18.42578125 146.96484375 C-19.05078125 150.83984375 -19.05078125 150.83984375 -21.30078125 153.83984375 C-25.96322763 157.09783208 -31.6261153 156.28072055 -37.05078125 155.83984375 C-40.952925 155.07587802 -44.65702112 153.91033073 -48.42578125 152.65234375 C-50.05664673 152.13027344 -50.05664673 152.13027344 -51.72045898 151.59765625 C-63.54977584 147.77021216 -75.30077024 143.69267287 -87.05297852 139.63574219 C-96.29113262 136.44867512 -105.54370244 133.34475349 -114.86328125 130.40234375 C-121.84258423 128.19164299 -128.81477267 125.97058296 -135.73828125 123.58984375 C-136.40384033 123.36756104 -137.06939941 123.14527832 -137.75512695 122.91625977 C-143.26389883 120.98793787 -147.76991262 118.76114669 -151.05078125 113.83984375 C-151.62258276 110.76641064 -151.53371335 108.72674946 -150.0234375 105.953125 C-144.06030923 97.54527932 -136.08489534 91.70299827 -127.53125 86.15234375 C-120.9848304 81.8606111 -114.72082379 77.14539659 -108.39306641 72.54101562 C-106.12018139 70.89024818 -103.8425011 69.24638999 -101.5625 67.60546875 C-93.77447361 61.99986713 -86.01809942 56.35497065 -78.30078125 50.65234375 C-71.78210046 45.83590159 -65.22629845 41.0796144 -58.62109375 36.3828125 C-54.52333525 33.46820962 -50.44154297 30.53164858 -46.36328125 27.58984375 C-45.61288574 27.04884033 -44.86249023 26.50783691 -44.08935547 25.95043945 C-39.22408073 22.43422426 -34.39277411 18.87510807 -29.57641602 15.29223633 C-26.43145835 12.95900131 -23.27279739 10.64510299 -20.10693359 8.34033203 C-18.8319525 7.40990769 -17.56068143 6.47434789 -16.29541016 5.53076172 C-11.0201715 1.61825201 -6.74959501 -1.46624955 0 0 Z " fill="#0DA79C" transform="translate(268.05078125,90.16015625)"/>
<path d="M0 0 C1.2375 0.37382812 2.475 0.74765625 3.75 1.1328125 C5.008125 1.52210938 6.26625 1.91140625 7.5625 2.3125 C8.67625 2.63992187 9.79 2.96734375 10.9375 3.3046875 C21.82941413 6.5770389 32.51430831 10.44299 43.20874023 14.30297852 C50.0862545 16.77794672 56.98489377 19.09765291 63.98364258 21.21118164 C70.86027965 23.32732257 77.68478911 25.59996445 84.50390625 27.89379883 C86.22198736 28.46873303 87.94208759 29.03766542 89.6640625 29.60083008 C92.18727029 30.42673278 94.70334038 31.27177979 97.21875 32.12109375 C97.98336548 32.36709824 98.74798096 32.61310272 99.5357666 32.86656189 C104.29064239 34.50114209 107.27070477 36.33953367 110.5625 40.3125 C111.47126621 43.57799991 110.7633349 46.18335346 109.5625 49.3125 C104.26668579 57.44397023 96.26619312 62.72969456 88.37548828 68.07568359 C85.48783146 70.04563639 82.65192023 72.08643139 79.8125 74.125 C78.64585563 74.95836455 77.47918837 75.79169705 76.3125 76.625 C69.81784158 81.27395421 63.34909724 85.95894679 56.87695312 90.63916016 C53.10656981 93.36513139 49.33446306 96.08871534 45.5625 98.8125 C44.06249141 99.89582144 42.56249142 100.97915479 41.0625 102.0625 C32.0625 108.5625 32.0625 108.5625 29.81274414 110.18725586 C28.3118445 111.27128416 26.81103078 112.35543142 25.31030273 113.43969727 C21.57476033 116.13837655 17.83777746 118.83501312 14.09765625 121.52734375 C6.21880742 127.20252329 -1.62856461 132.91641265 -9.4375 138.6875 C-31.9650545 155.3125 -31.9650545 155.3125 -38 155.3125 C-42.26714117 154.07114984 -43.91381975 152.98330764 -46.4375 149.3125 C-47.42730983 143.71720398 -46.52701476 139.42342589 -43.44155884 134.72270203 C-43.00193817 134.09878067 -42.5623175 133.47485931 -42.109375 132.83203125 C-41.65291595 132.14893387 -41.19645691 131.46583649 -40.72616577 130.76203918 C-39.23231319 128.53614014 -37.71044207 126.3310732 -36.1875 124.125 C-35.1397827 122.57539396 -34.09407038 121.02443056 -33.05029297 119.47216797 C-30.91112826 116.29656671 -28.76131963 113.1286056 -26.60253906 109.96630859 C-23.62575133 105.59990768 -20.69120177 101.20678425 -17.7734375 96.80078125 C-17.32899292 96.13011124 -16.88454834 95.45944122 -16.42663574 94.76844788 C-15.55667982 93.45558063 -14.68680481 92.14265976 -13.8170166 90.8296814 C-4.94876817 77.45374466 -4.94876817 77.45374466 -0.97558594 71.78808594 C-0.57024628 71.20916595 -0.16490662 70.63024597 0.25271606 70.03378296 C1.37167656 68.44076964 2.49642845 66.85182875 3.62158203 65.26318359 C7.15881256 59.88570332 9.46169499 55.41861672 9.2109375 48.9375 C7.86373375 43.48375953 3.5089129 40.06114855 -0.4375 36.3125 C-21.25593147 16.04302115 -21.25593147 16.04302115 -21.81640625 6.328125 C-21.34307709 3.81020908 -20.55582911 2.96343005 -18.625 1.3125 C-12.22301145 -2.70443399 -7.16319928 -2.17561755 0 0 Z " fill="#0DA79C" transform="translate(253.4375,180.6875)"/>
<path d="M0 0 C5.43525264 3.44487843 9.45856458 8.25468099 13.21875 13.40625 C13.52425781 12.90996094 13.82976562 12.41367188 14.14453125 11.90234375 C18.57115425 5.33099073 24.79449056 -0.0374608 32.546875 -2.26171875 C43.23104955 -3.5894305 53.11269966 -3.98396077 62.21875 2.40625 C63.29125 3.128125 64.36375 3.85 65.46875 4.59375 C76.59124846 15.96903251 78.8501473 30.22025034 78.78515625 45.49609375 C78.79040445 47.01396563 78.79668526 48.53183426 78.80393982 50.04969788 C78.81426688 53.2055719 78.80988732 56.3609927 78.79516602 59.5168457 C78.77786872 63.55438245 78.80164565 67.59051046 78.83665562 71.62789059 C78.85862218 74.75154482 78.85719215 77.87486025 78.8488903 80.99856758 C78.84807267 82.48768232 78.85490013 83.97682238 78.86966133 85.46586418 C78.88712419 87.54315222 78.872564 89.61788246 78.84985352 91.69506836 C78.84889175 92.87354843 78.84792999 94.0520285 78.84693909 95.26622009 C78.02834681 99.35798844 76.45628408 100.85240347 73.21875 103.40625 C69.58984375 104.03515625 69.58984375 104.03515625 65.65625 103.96875 C64.35558594 103.97003906 63.05492187 103.97132813 61.71484375 103.97265625 C57.64299636 103.31297148 56.70489919 102.60927572 54.21875 99.40625 C53.72668457 96.66999817 53.72668457 96.66999817 53.73632812 93.49536133 C53.72952026 92.30344681 53.7227124 91.11153229 53.71569824 89.88349915 C53.72701782 88.59807724 53.7383374 87.31265533 53.75 85.98828125 C53.74516944 84.64791358 53.73801169 83.30755246 53.7286377 81.96720886 C53.69904252 77.00084766 53.712116 72.03476336 53.72381592 67.06835938 C53.7320659 62.87449804 53.72388044 58.68126624 53.69468689 54.48749352 C53.68766039 52.53289858 53.70445333 50.57826409 53.72180176 48.62373352 C53.67831422 40.90929482 53.23201643 33.67004306 47.70056152 27.79328918 C43.23455416 23.9381219 40.26917725 23.05136891 34.53515625 23.125 C29.89230459 23.68871892 27.17235887 26.42539516 24.03125 29.65625 C18.93562509 37.38754297 18.789598 44.46116433 18.8125 53.48046875 C18.79624573 55.34346367 18.79624573 55.34346367 18.77966309 57.24409485 C18.73971479 61.86478675 18.72563245 66.4853807 18.71343994 71.10620117 C18.70005783 75.64784122 18.66471527 80.18899471 18.625 84.73046875 C18.62802124 85.92637131 18.63104248 87.12227386 18.63415527 88.35441589 C18.62404419 89.46939957 18.61393311 90.58438324 18.60351562 91.7331543 C18.60146118 92.71052048 18.59940674 93.68788666 18.59729004 94.69487 C18.14921304 97.90432446 17.11084611 99.79679123 15.21875 102.40625 C12.21587912 103.90768544 9.135641 103.67199018 5.84375 103.71875 C4.83441406 103.76225586 4.83441406 103.76225586 3.8046875 103.80664062 C0.34089246 103.85096084 -1.4347403 103.67818722 -4.1953125 101.51171875 C-6.78829282 98.06931384 -6.91218366 96.075149 -6.93896484 91.79833984 C-6.94922699 90.62306732 -6.95948914 89.4477948 -6.97006226 88.23690796 C-6.97736359 86.95990021 -6.98466492 85.68289246 -6.9921875 84.3671875 C-7.01307133 82.36537121 -7.03397271 80.36355492 -7.05588722 78.36174965 C-7.10901299 73.41945834 -7.15313487 68.47715768 -7.18261719 63.53466797 C-7.19957609 60.76602378 -7.22433336 57.99765419 -7.25747681 55.22915649 C-7.2883412 52.6226414 -7.30784101 50.01596045 -7.31454468 47.40927124 C-7.31324985 36.86970273 -7.31324985 36.86970273 -12.23275757 27.85897827 C-16.71905523 23.98746546 -19.64084202 23.05094733 -25.3984375 23.125 C-30.34639161 23.70902081 -33.59722059 26.22222059 -37.09375 29.71875 C-41.57636669 36.85773214 -41.08962989 44.45957379 -41.125 52.63671875 C-41.1396228 53.90469803 -41.15424561 55.17267731 -41.16931152 56.4790802 C-41.22357632 61.20366327 -41.26094621 65.92826566 -41.29693604 70.65301514 C-41.33317206 75.29356907 -41.38386388 79.93382648 -41.4375 84.57421875 C-41.4427771 85.80029343 -41.4480542 87.0263681 -41.45349121 88.28959656 C-41.46690552 89.42790421 -41.48031982 90.56621185 -41.49414062 91.73901367 C-41.50143188 92.73938156 -41.50872314 93.73974945 -41.51623535 94.77043152 C-41.78914489 97.48477204 -42.33338711 99.11307586 -43.78125 101.40625 C-47.18683925 103.88160885 -50.67438045 103.73774503 -54.78125 103.78125 C-55.998125 103.80960937 -57.215 103.83796875 -58.46875 103.8671875 C-62.33665425 103.32896497 -63.43097863 102.44578364 -65.78125 99.40625 C-67.42963693 96.10947614 -66.95584919 92.43858486 -66.97412109 88.81323242 C-66.98229858 87.92364334 -66.99047607 87.03405426 -66.99890137 86.11750793 C-67.02376936 83.16558511 -67.0402745 80.21371039 -67.0546875 77.26171875 C-67.06001118 76.25479792 -67.06533485 75.24787708 -67.07081985 74.2104435 C-67.09755686 68.88143296 -67.11693047 63.5524459 -67.13134766 58.22338867 C-67.14800172 52.71505589 -67.19278448 47.20732068 -67.2437191 41.69921398 C-67.27735004 37.46730347 -67.28892052 33.23553556 -67.29457474 29.0035038 C-67.30129812 26.9728876 -67.31654829 24.94228114 -67.34046555 22.91179466 C-67.37203233 20.06984916 -67.3721667 17.22952546 -67.36474609 14.38745117 C-67.38115143 13.5483017 -67.39755676 12.70915222 -67.41445923 11.84457397 C-67.36876112 7.57011317 -67.15282156 5.89160815 -64.46939087 2.38642883 C-60.92891784 -0.22160776 -58.64565048 -0.262394 -54.28125 -0.21875 C-52.34765625 -0.23808594 -52.34765625 -0.23808594 -50.375 -0.2578125 C-45.97128091 0.5559182 -44.50452599 1.91657364 -41.78125 5.40625 C-40.96875 8.71875 -40.96875 8.71875 -40.78125 11.40625 C-40.36875 10.88675781 -39.95625 10.36726562 -39.53125 9.83203125 C-29.47687489 -2.30952441 -14.93797242 -6.9710538 0 0 Z " fill="#292A3C" transform="translate(974.78125,162.59375)"/>
<path d="M0 0 C0.79680176 0.00749268 1.59360352 0.01498535 2.41455078 0.02270508 C16.90787444 0.28726809 29.96980229 4.8199832 41.1875 14.25 C43.63028229 17.91417343 43.56723717 19.52512297 42.984375 23.7578125 C41.41916102 28.65294249 38.10446011 32.04457401 34.1875 35.25 C30.8125 36.6875 30.8125 36.6875 27.1875 36.25 C24.58426334 34.91801058 22.16732429 33.40626793 19.7109375 31.8203125 C11.21869697 26.53566746 1.39888088 25.81661305 -8.34765625 27.75390625 C-12.81736099 29.2159592 -15.30036278 31.33106594 -17.8125 35.25 C-18.94807238 37.52114476 -19.04334318 38.97293619 -19.125 41.5 C-19.16238281 42.24765625 -19.19976562 42.9953125 -19.23828125 43.765625 C-18.62106073 47.36702179 -17.09166113 49.41808551 -14.8125 52.25 C-7.4772605 57.4004991 1.00355884 59.93059819 9.5625 62.25 C25.82424792 66.66018837 41.16852892 71.9054863 50.25 87.23046875 C54.83116607 97.09906399 54.75503869 109.47665598 51.5625 119.8125 C46.84535768 131.72862607 38.64394503 140.86356667 26.90234375 146.21875 C10.99750323 152.26030093 -7.27035397 152.25301962 -22.99609375 145.55078125 C-32.54445622 141.16605814 -41.82002953 135.89011565 -46.8125 126.25 C-47.44240745 123.47840721 -47.41138276 121.02971997 -46.8125 118.25 C-44.6875 115.5 -44.6875 115.5 -41.8125 113.25 C-40.884375 112.486875 -39.95625 111.72375 -39 110.9375 C-35.16688627 108.90820449 -32.00258362 108.02343328 -27.8125 109.25 C-25.9574711 110.7877793 -24.46421459 112.48693616 -22.875 114.296875 C-15.59725387 121.18868005 -6.26624059 123.45218832 3.375 123.5625 C4.20064453 123.59150391 5.02628906 123.62050781 5.87695312 123.65039062 C11.81290019 123.71120017 16.23795026 122.6065743 21.1875 119.25 C25.58354462 114.62851719 26.58632778 110.74208853 26.4453125 104.52734375 C26.01106026 100.69144898 24.8868371 99.01211238 22.1875 96.25 C15.20713006 91.81400155 7.16988834 90.11026494 -0.75 88.12255859 C-15.57632984 84.3483163 -31.68809407 77.7505598 -40.125 64.3125 C-46.07641211 54.28477823 -45.97477581 42.48102597 -44.3828125 31.20703125 C-41.87700435 21.47768975 -35.03329983 12.87400267 -26.8125 7.25 C-18.15015533 2.55008428 -9.85984556 -0.12217771 0 0 Z " fill="#292A3B" transform="translate(453.8125,118.75)"/>
<path d="M0 0 C0.9180542 0.00499512 1.8361084 0.00999023 2.78198242 0.01513672 C14.06523872 0.30284835 23.29166882 3.90247244 31.75 11.5 C32.35328125 12.02335938 32.9565625 12.54671875 33.578125 13.0859375 C43.63629764 22.40067999 49.24246739 35.80850759 50.19921875 49.390625 C50.25493361 51.00989852 50.29308757 52.62988456 50.3125 54.25 C50.33449463 55.3937207 50.33449463 55.3937207 50.35693359 56.56054688 C50.29075443 60.11030156 50.04766591 62.11772149 47.83984375 64.953125 C44.14589102 67.68734048 41.86456004 67.62198258 37.28076172 67.61352539 C36.28545944 67.61374443 36.28545944 67.61374443 35.27005005 67.6139679 C33.07322947 67.61327031 30.8764933 67.60548514 28.6796875 67.59765625 C27.15796963 67.59579152 25.63625116 67.59436788 24.11453247 67.59336853 C20.10648953 67.58954767 16.09848274 67.57972104 12.0904541 67.56866455 C8.00171396 67.55844118 3.91296799 67.55386892 -0.17578125 67.54882812 C-8.20053744 67.5380984 -16.22526422 67.52102713 -24.25 67.5 C-23.61984198 68.79340682 -22.98589659 70.08496891 -22.3503418 71.37573242 C-21.99771774 72.09516525 -21.64509369 72.81459808 -21.28178406 73.55583191 C-18.67676887 78.46440495 -14.20265161 81.37188973 -9.125 83.375 C0.46961537 86.10464356 10.01291319 85.31102938 18.75 80.5 C19.37777344 79.95988281 20.00554687 79.41976562 20.65234375 78.86328125 C23.57652608 76.96283501 25.31963264 77.01366944 28.75 77.5 C33.167527 80.18784741 37.61115474 83.76075105 39.63671875 88.6328125 C39.90982204 91.72798313 39.25479792 93.6741292 37.64453125 96.30859375 C31.58309922 103.30495102 20.86510218 108.55666648 11.75 109.5 C-6.31889392 110.69377971 -20.70907615 107.54555104 -34.9375 95.8125 C-43.87718022 87.52039379 -50.44254645 75.40101584 -51.44287109 63.13500977 C-52.08582555 43.63400631 -48.895552 29.00650721 -35.2421875 14.34375 C-25.14121498 5.01977536 -13.73153169 -0.09863334 0 0 Z " fill="#292A3C" transform="translate(848.25,159.5)"/>
<path d="M0 0 C1.30066406 -0.00128906 2.60132813 -0.00257813 3.94140625 -0.00390625 C7.88640455 0.63522755 9.04952864 1.43886998 11.4375 4.5625 C12.73597362 7.15944723 12.56212366 9.04703653 12.56347656 11.95507812 C12.56918671 13.64824158 12.56918671 13.64824158 12.57501221 15.37561035 C12.57603943 16.60259644 12.57706665 17.82958252 12.578125 19.09375 C12.59646235 21.68490456 12.61603351 24.27605062 12.63671875 26.8671875 C12.66697486 30.9574165 12.68983134 35.04734374 12.68798828 39.13769531 C12.68704252 43.0817163 12.72598508 47.02492273 12.765625 50.96875 C12.7585553 52.17954224 12.7514856 53.39033447 12.74420166 54.63781738 C12.87083414 63.54000301 14.53271177 70.75068292 21.0625 77.125 C26.50636758 80.41997248 32.26016345 80.11124817 38.4375 79.5625 C43.77744895 78.11408247 47.44771371 75.33122106 50.32542419 70.61102295 C54.47557905 62.9661417 54.85571413 55.60929928 54.80859375 47.046875 C54.82596163 44.63801931 54.84354614 42.22916517 54.86132812 39.8203125 C54.87143048 36.05238117 54.87498741 32.28454593 54.87329102 28.51660156 C54.87685382 24.85973726 54.90415269 21.20360862 54.93359375 17.546875 C54.92541122 16.41973083 54.9172287 15.29258667 54.90879822 14.13128662 C54.98281483 6.3745834 54.98281483 6.3745834 57.23461914 2.3527832 C60.44448884 -0.25588071 63.48578345 -0.13243978 67.4375 0 C68.1490625 -0.01095703 68.860625 -0.02191406 69.59375 -0.03320312 C73.11162434 0.01602086 75.07611899 0.27930238 77.875 2.47265625 C80.92252114 6.54871578 80.59866854 10.14175296 80.61450195 15.0637207 C80.62107315 15.94355621 80.62764435 16.82339172 80.63441467 17.72988892 C80.65416879 20.64935384 80.66581474 23.56876728 80.67578125 26.48828125 C80.67985678 27.48416952 80.6839323 28.48005779 80.68813133 29.5061245 C80.70900073 34.77678598 80.72329889 40.04742135 80.73266602 45.31811523 C80.74373447 50.76582342 80.77813702 56.21312358 80.81783772 61.66068745 C80.84396593 65.8462755 80.85235446 70.03176577 80.85594749 74.21742821 C80.86082299 76.22569727 80.87246426 78.23396169 80.89098549 80.24215126 C80.91529695 83.05279623 80.91442658 85.86237808 80.9074707 88.6730957 C80.92028076 89.50289444 80.93309082 90.33269318 80.94628906 91.18763733 C80.91026736 95.1803775 80.73036663 97.10220391 78.53312683 100.55558777 C74.22184677 104.68435753 69.54402061 103.95322968 63.8125 103.90625 C60.4375 103.5625 60.4375 103.5625 57.125 101.4375 C55.32684336 98.37397387 54.68366262 96.09083095 54.4375 92.5625 C53.756875 93.449375 53.07625 94.33625 52.375 95.25 C47.72115296 100.79278411 41.6368229 105.17184327 34.4375 106.5625 C25.24351031 107.30380497 16.41900078 107.82377501 8.4375 102.5625 C7.74398437 102.11519531 7.05046875 101.66789062 6.3359375 101.20703125 C-4.31825995 93.76505438 -9.13810798 84.70808701 -11.92724609 72.22412109 C-12.99810484 66.05166165 -13.0302779 59.93890444 -13.03125 53.6875 C-13.03837415 52.30557965 -13.04607631 50.92366217 -13.05432129 49.54174805 C-13.06763468 46.67439481 -13.06939052 43.80731654 -13.06347656 40.93994141 C-13.05753102 37.273489 -13.08842891 33.60833832 -13.12859344 29.94213867 C-13.1544531 27.10073791 -13.15735072 24.25965406 -13.15370178 21.41815186 C-13.15620345 19.41232021 -13.18085858 17.40655539 -13.20593262 15.40087891 C-13.1290885 5.33463176 -13.1290885 5.33463176 -10.25219727 2.23852539 C-6.67685631 0.01063071 -4.19180687 -0.07076536 0 0 Z " fill="#2A2B3D" transform="translate(530.5625,162.4375)"/>
<path d="M0 0 C1.06734375 0.03577148 1.06734375 0.03577148 2.15625 0.07226562 C2.8678125 0.06130859 3.579375 0.05035156 4.3125 0.0390625 C7.61260664 0.08523937 9.70651314 0.29133909 12.36047363 2.31794739 C14.59016128 5.19457563 14.65022368 6.66089045 14.63867188 10.27026367 C14.64547974 11.40211594 14.6522876 12.5339682 14.65930176 13.70011902 C14.64798218 14.91991959 14.6366626 16.13972015 14.625 17.39648438 C14.63204956 18.65685013 14.63909912 19.91721588 14.6463623 21.21577454 C14.67217012 25.9318061 14.66288925 30.64728959 14.65118408 35.36334229 C14.64161794 39.97879902 14.66178232 44.5935615 14.6875 49.20898438 C14.67618042 50.41866379 14.66486084 51.6283432 14.65319824 52.87467957 C14.70850207 62.1973431 16.49456078 69.77120704 23.15625 76.63476562 C28.84918076 80.72531552 34.38858473 80.35490413 41.15625 79.63476562 C46.51637596 78.19855963 50.15743134 75.41762781 53.04441833 70.68328857 C57.19389432 63.03797945 57.57446525 55.68176828 57.52734375 47.11914062 C57.54471163 44.71028493 57.56229614 42.3014308 57.58007812 39.89257812 C57.59018048 36.1246468 57.59373741 32.35681156 57.59204102 28.58886719 C57.59560382 24.93200288 57.62290269 21.27587424 57.65234375 17.61914062 C57.64416122 16.49199646 57.6359787 15.36485229 57.62754822 14.20355225 C57.70156483 6.44684903 57.70156483 6.44684903 59.95336914 2.42504883 C63.16323884 -0.18361508 66.20453345 -0.06017415 70.15625 0.07226562 C70.8678125 0.06130859 71.579375 0.05035156 72.3125 0.0390625 C75.47390075 0.08329852 77.70257715 0.3326085 80.35728455 2.10070801 C83.03496923 5.87254657 82.72371728 9.22292803 82.68969727 13.74609375 C82.70262062 15.12721596 82.70262062 15.12721596 82.71580505 16.53623962 C82.73850803 19.57978423 82.73171852 22.62241138 82.72265625 25.66601562 C82.72788968 27.78064244 82.73416512 29.89526692 82.74143982 32.0098877 C82.75185187 36.44176213 82.74727052 40.87331565 82.73266602 45.30517578 C82.7154718 50.98852591 82.73897763 56.67086571 82.77415562 62.35410309 C82.79610007 66.72071042 82.79469535 71.08707487 82.7863903 75.45372009 C82.78556927 77.5493226 82.79246159 79.64494267 82.80716133 81.74049377 C82.82455368 84.66877648 82.81010917 87.59522896 82.78735352 90.5234375 C82.80489182 91.82491982 82.80489182 91.82491982 82.82278442 93.1526947 C82.73002267 99.01034262 82.73002267 99.01034262 79.82774353 102.16882324 C74.63198143 105.0199205 68.88777185 104.42225071 63.15625 103.63476562 C59.84375 101.50976562 59.84375 101.50976562 58.15625 98.63476562 C57.77697627 96.6429668 57.43715242 94.64280072 57.15625 92.63476562 C56.63417969 93.22644531 56.11210938 93.818125 55.57421875 94.42773438 C48.30567393 102.23091821 41.57170273 106.69126897 30.77661133 107.1706543 C23.53241828 107.25651023 17.37314048 106.58351584 11.15625 102.63476562 C10.125 102.03664063 9.09375 101.43851562 8.03125 100.82226562 C0.94112927 95.42760855 -3.48559788 89.93814175 -6.84375 81.63476562 C-7.09204056 81.0723819 -7.34033112 80.50999817 -7.59614563 79.93057251 C-10.50123983 72.54811405 -10.29858328 65.08049881 -10.27734375 57.27539062 C-10.28191294 55.79807294 -10.28722069 54.32075737 -10.29322815 52.84344482 C-10.30211523 49.76386819 -10.29978347 46.68455156 -10.28979492 43.60498047 C-10.2782583 39.66507091 -10.2986095 35.72605144 -10.32771206 31.7862587 C-10.34607197 28.74241482 -10.345783 25.69878495 -10.34007454 22.6548996 C-10.33992158 21.20207207 -10.3459453 19.74922982 -10.35836601 18.29645538 C-10.37328271 16.26767418 -10.35996543 14.23874512 -10.34545898 12.20996094 C-10.34529282 11.05796204 -10.34512665 9.90596313 -10.34495544 8.71905518 C-9.3249501 2.4422043 -6.28404414 0.01758594 0 0 Z " fill="#28293A" transform="translate(1077.84375,162.365234375)"/>
<path d="M0 0 C4.12461719 2.99236933 4.12461719 2.99236933 4.53125 5.0625 C4.98163154 11.54799416 2.9943024 14.70094811 -1.18359375 19.5625 C-2.04761411 20.49075209 -2.91578847 21.41578847 -3.8125 22.3125 C-8.42886585 22.00474228 -12.27923344 20.82926053 -16.625 19.25 C-23.1901301 16.99580746 -29.31912107 15.71136799 -35.8125 18.6875 C-37.87466824 20.3060688 -37.87466824 20.3060688 -39.8125 22.3125 C-40.04489871 25.77709235 -40.04489871 25.77709235 -38.8125 29.3125 C-33.55709319 32.99819977 -28.46063287 34.3095969 -22.25 35.625 C-9.65476221 38.53703289 1.50256521 42.57467209 9.4375 53.375 C13.55029836 60.27862581 13.09779585 69.1747285 11.7265625 76.9140625 C9.16903426 85.4291271 4.38622928 92.47117358 -3.3046875 97.02734375 C-16.78371603 103.93482099 -32.45189134 104.67741783 -46.9375 100.3125 C-54.5422342 97.38438452 -62.21128806 93.2143179 -66.8125 86.3125 C-67.3351521 82.05164097 -67.28129186 80.01427292 -64.87109375 76.40625 C-64.00613281 75.5503125 -63.14117188 74.694375 -62.25 73.8125 C-61.40308594 72.9359375 -60.55617188 72.059375 -59.68359375 71.15625 C-56.8125 69.3125 -56.8125 69.3125 -53.25390625 69.34765625 C-49.95703826 70.27197679 -48.00416618 71.19609801 -45.3125 73.25 C-37.94207912 78.41548824 -30.65948147 79.13461894 -21.8125 78.3125 C-18.30813918 76.98325969 -16.4290916 75.9290916 -13.8125 73.3125 C-13.56996187 71.10177023 -13.56996187 71.10177023 -13.6875 68.6875 C-13.70554687 67.87023437 -13.72359375 67.05296875 -13.7421875 66.2109375 C-13.76539063 65.58445312 -13.78859375 64.95796875 -13.8125 64.3125 C-15.30136719 63.94898438 -15.30136719 63.94898438 -16.8203125 63.578125 C-21.15696257 62.5126341 -25.48566128 61.41708135 -29.8125 60.3125 C-31.08738281 59.98894531 -32.36226562 59.66539062 -33.67578125 59.33203125 C-40.6600753 57.46191973 -46.77960493 55.33443004 -52.8125 51.3125 C-53.864375 50.631875 -54.91625 49.95125 -56 49.25 C-62.08738853 43.70825974 -65.04518942 36.08378159 -65.52783203 28.00634766 C-65.68094459 18.31712647 -63.35136786 10.76922781 -57.0546875 3.19921875 C-42.40206864 -11.11620596 -16.77550632 -10.17773223 0 0 Z " fill="#292A3C" transform="translate(1239.8125,166.6875)"/>
<path d="M0 0 C2.15552333 1.59406701 2.90983307 2.48057936 3.37231445 5.14477539 C3.3693335 5.95422607 3.36635254 6.76367676 3.36328125 7.59765625 C3.36263672 8.48130859 3.36199219 9.36496094 3.36132812 10.27539062 C3.34521484 11.19513672 3.32910156 12.11488281 3.3125 13.0625 C3.31572266 13.98611328 3.31894531 14.90972656 3.32226562 15.86132812 C3.26705173 22.73294827 3.26705173 22.73294827 1 25 C-0.90513689 25.35935217 -2.82551196 25.6404231 -4.75 25.875 C-11.04758077 26.84675588 -14.60899144 28.67730597 -19.1875 33.125 C-24.17207322 41.03156442 -24.41168733 49.54557321 -24.3359375 58.6484375 C-24.34843565 61.05859652 -24.36147208 63.46875279 -24.375 65.87890625 C-24.37894695 69.64479103 -24.37486355 73.41040945 -24.36035156 77.17626953 C-24.35181307 80.8340636 -24.37339105 84.49074193 -24.3984375 88.1484375 C-24.38509369 89.2776059 -24.37174988 90.40677429 -24.35800171 91.57015991 C-24.43178415 99.33760869 -24.43178415 99.33760869 -27.32446289 102.7097168 C-30.74056205 104.35713755 -33.27809764 104.49821234 -37.0625 104.4375 C-38.27035156 104.43621094 -39.47820313 104.43492187 -40.72265625 104.43359375 C-44.17404721 103.97697349 -45.587178 103.45911115 -48 101 C-49.3025597 97.09232089 -49.16398554 93.36759292 -49.17700195 89.29345703 C-49.18357315 88.40372192 -49.19014435 87.51398682 -49.19691467 86.59729004 C-49.21663766 83.65079668 -49.22830679 80.70435422 -49.23828125 77.7578125 C-49.24235678 76.75180874 -49.2464323 75.74580498 -49.25063133 74.70931625 C-49.27148575 69.38677933 -49.28579136 64.06426816 -49.29516602 58.74169922 C-49.30624153 53.24133472 -49.34065651 47.74137354 -49.38033772 42.24115181 C-49.40646239 38.0135319 -49.41485406 33.78600881 -49.41844749 29.55831528 C-49.42332257 27.53050888 -49.43496266 25.50270706 -49.45348549 23.4749794 C-49.47779315 20.63810311 -49.47692746 17.80228025 -49.4699707 14.96533203 C-49.48278076 14.1277536 -49.49559082 13.29017517 -49.50878906 12.42721558 C-49.4735442 8.48520965 -49.26203371 6.44100925 -47.20500183 2.97897339 C-44.03583221 0.1346663 -41.04705569 0.30186498 -37 0.4375 C-36.2884375 0.42654297 -35.576875 0.41558594 -34.84375 0.40429688 C-31.40488826 0.45241528 -29.3638818 0.72943627 -26.578125 2.80078125 C-24.50087543 5.69556221 -23.7952726 8.55381873 -23 12 C-22.01 10.6696875 -22.01 10.6696875 -21 9.3125 C-15.57096883 2.78528874 -8.51464256 -0.72465043 0 0 Z " fill="#28293B" transform="translate(792,162)"/>
<path d="M0 0 C6.71871579 3.43582279 11.61152643 8.33209305 14.72265625 15.2421875 C16.94338298 23.25921474 17.3440019 33.06641247 13.38671875 40.56640625 C9.04861601 46.86756107 3.13815529 52.40946054 -4.2265625 54.93359375 C-12.72698857 56.41324163 -21.64398313 56.45829214 -29.20703125 51.99609375 C-35.47781888 47.24884255 -41.0552413 41.26290234 -42.42578125 33.31640625 C-43.5127519 23.00253697 -42.30682428 15.4650988 -35.81640625 7.2890625 C-26.16278357 -3.18378962 -13.02829712 -5.33398185 0 0 Z " fill="#FDFDFD" transform="translate(692.42578125,187.68359375)"/>
<path d="M0 0 C4.68630475 3.88293822 9.57798732 8.69656866 11.77734375 14.47265625 C11.77734375 16.12265625 11.77734375 17.77265625 11.77734375 19.47265625 C-5.38265625 19.47265625 -22.54265625 19.47265625 -40.22265625 19.47265625 C-37.17976828 10.34399234 -33.93371891 4.04048768 -25.66015625 -1.08984375 C-18.1701804 -4.30830862 -7.05396062 -4.30646611 0 0 Z " fill="#F7F7F7" transform="translate(862.22265625,186.52734375)"/>
</svg>
